<svg width="25" height="20" viewBox="0 0 25 20" fill="none" xmlns="http://www.w3.org/2000/svg">
<path id="Vector 15" d="M3.24392 12.3252L11.9025 19.3595C12.1722 19.5786 12.307 19.6882 12.4642 19.6994C12.4881 19.7011 12.5119 19.7011 12.5358 19.6994C12.693 19.6882 12.8278 19.5786 13.0975 19.3595L21.7561 12.3252C24.6097 10.0068 24.9435 5.77257 22.4882 3.0358C19.8599 0.106101 15.1266 0.645531 13.2248 4.09149L13.1396 4.24602C12.8618 4.7494 12.1382 4.7494 11.8604 4.24602L11.7752 4.09149C9.87343 0.645532 5.14009 0.106102 2.51177 3.0358C0.0565329 5.77257 0.390257 10.0068 3.24392 12.3252Z" stroke="#F8F8F8" stroke-width="0.5"/>
</svg>